<svg xmlns="http://www.w3.org/2000/svg" width="31.648" height="31.648" viewBox="0 0 31.648 31.648">
  <path id="download-light" d="M27.939,26.7A1.236,1.236,0,1,1,26.7,25.467,1.24,1.24,0,0,1,27.939,26.7Zm-5.192-1.236A1.236,1.236,0,1,0,23.983,26.7,1.24,1.24,0,0,0,22.747,25.467Zm8.9-2.967v6.429a2.72,2.72,0,0,1-2.72,2.72H2.72A2.72,2.72,0,0,1,0,28.928V22.5a2.72,2.72,0,0,1,2.72-2.72H8.864L5.378,16.294a2.474,2.474,0,0,1,1.749-4.222h3.258v-9.6A2.472,2.472,0,0,1,12.857,0h5.934a2.472,2.472,0,0,1,2.473,2.473v9.6h3.258a2.475,2.475,0,0,1,1.749,4.222L22.784,19.78h6.144A2.72,2.72,0,0,1,31.648,22.5ZM15.472,23.594a.5.5,0,0,0,.7,0l8.7-8.7a.5.5,0,0,0-.352-.847H19.286V2.473a.5.5,0,0,0-.495-.495H12.857a.5.5,0,0,0-.495.495V14.05H7.127a.5.5,0,0,0-.352.847ZM29.67,22.5a.744.744,0,0,0-.742-.742H20.806l-3.233,3.233a2.477,2.477,0,0,1-3.5,0l-3.233-3.233H2.72a.744.744,0,0,0-.742.742v6.429a.744.744,0,0,0,.742.742H28.928a.744.744,0,0,0,.742-.742Z" fill="#39444c"/>
</svg>
