<svg xmlns="http://www.w3.org/2000/svg" width="107.75" height="33.957" viewBox="0 0 107.75 33.957">
  <g id="Group_452" data-name="Group 452" transform="translate(-121.689 -326.819)">
    <path id="Path_41210" data-name="Path 41210" d="M136.232,360.58a14.892,14.892,0,0,1-9.407-3.1,13.046,13.046,0,0,1-4.817-7.934,16.263,16.263,0,0,1,2.069-11.541A40.682,40.682,0,0,1,131.185,329a7.036,7.036,0,0,1,3.645-2.032,6.475,6.475,0,0,1,6,1.721,40.614,40.614,0,0,1,7.388,9.2,19.189,19.189,0,0,1,2.325,6.142,14.383,14.383,0,0,1,.038,4.405,14.062,14.062,0,0,1-1.957,5.65,13.441,13.441,0,0,1-8.51,6.039A14.793,14.793,0,0,1,136.232,360.58Zm-.043-4.334c.9-.124,1.813-.185,2.7-.383,6.132-1.374,8.1-6.877,7.223-11.422a14.886,14.886,0,0,0-1.944-4.721A37.407,37.407,0,0,0,137.9,332a2.3,2.3,0,0,0-3.424-.016q-.917.89-1.784,1.832a33.7,33.7,0,0,0-4.809,6.488,11.7,11.7,0,0,0-1.544,8.316,8.908,8.908,0,0,0,3.012,5.216A11.07,11.07,0,0,0,136.188,356.246Z" transform="translate(0 0)" fill="#01abb2"/>
    <path id="Path_41211" data-name="Path 41211" d="M437.822,349.348v-6.466c0-.06,0-.12,0-.18-.054-1.6.825-1.953,2.168-1.807,1.111.12,1.106.163,1.106,1.259,0,4,.008,8-.006,11.995a9.841,9.841,0,0,1-.824,4.2,6.763,6.763,0,0,1-5.393,3.99,8.319,8.319,0,0,1-5.379-.793,7.136,7.136,0,0,1-3.891-5.883,7.679,7.679,0,0,1,1.6-5.767,6.889,6.889,0,0,1,4.862-2.623,6.5,6.5,0,0,1,5.043,1.423C437.34,348.876,437.545,349.089,437.822,349.348Zm.032,5.521a11.364,11.364,0,0,0-.137-1.139,4.4,4.4,0,0,0-8.734.863,4.45,4.45,0,1,0,8.871.276Z" transform="translate(-211.658 -9.783)" fill="#fff"/>
    <path id="Path_41212" data-name="Path 41212" d="M356.714,349.366a6.173,6.173,0,0,1,2.153-1.632,7.256,7.256,0,0,1,8.969,2.828,8.042,8.042,0,0,1-1.089,9.719,7.541,7.541,0,0,1-4.851,2.088,8.725,8.725,0,0,1-4.348-.711,6.764,6.764,0,0,1-3.85-5.064,11.6,11.6,0,0,1-.232-2.318c-.023-3.878-.01-7.756-.011-11.634,0-1.415.7-2.013,2.124-1.815,1.137.158,1.137.158,1.137,1.3q0,3.386,0,6.772Zm5.17,10.063a4,4,0,0,0,3.226-2.44,5.065,5.065,0,0,0,.321-3.509,4.089,4.089,0,0,0-3.024-3.206,4.231,4.231,0,0,0-4.482,1.192,4.874,4.874,0,0,0-1.219,3.683C356.81,357.632,358.64,359.427,361.884,359.429Z" transform="translate(-161.436 -9.731)" fill="#fff"/>
    <path id="Path_41213" data-name="Path 41213" d="M280.281,368.071c0,1.273,0,2.546,0,3.819a5.6,5.6,0,0,1-3.958,5.575,8.952,8.952,0,0,1-6.733-.269,5.441,5.441,0,0,1-3.241-4.4,7.393,7.393,0,0,1-.069-1.075q-.009-3.531,0-7.063a1.3,1.3,0,0,1,1.262-1.5,3.348,3.348,0,0,1,1.8.222.462.462,0,0,1,.18.359c.012,1.393.007,2.787.008,4.18,0,1.117-.011,2.234.017,3.351a5.635,5.635,0,0,0,.188,1.275,2.981,2.981,0,0,0,2.969,2.41,7.291,7.291,0,0,0,1.857-.113,3.012,3.012,0,0,0,2.385-2.85c.069-.848.07-1.7.076-2.553.011-1.537,0-3.075,0-4.612,0-1.216.479-1.7,1.711-1.679a9.832,9.832,0,0,1,1.235.183c.245.036.321.164.319.417C280.274,365.188,280.281,366.629,280.281,368.071Z" transform="translate(-100.713 -25.287)" fill="#fff"/>
    <path id="Path_41214" data-name="Path 41214" d="M240.941,364.985l1.306,2.156a6.46,6.46,0,0,1-2.411,1.169,7.548,7.548,0,0,1-4.6-.077,4.133,4.133,0,0,1-2.733-3.833c-.026-3.975-.015-7.95-.018-11.925,0-.384.014-.769,0-1.153-.054-1.224.645-1.585,1.567-1.61a6.32,6.32,0,0,1,1.511.256c.081.018.174.2.176.313.013,1.02.007,2.042.007,3.062v.454h.394c1.238,0,2.477.042,3.713-.01,1.716-.071,2,1.039,1.7,2.266-.187.754-.2.75-.974.75H236.1c-.106,0-.211.01-.343.017-.006.133-.015.249-.015.366,0,2.03,0,4.059,0,6.089a3.555,3.555,0,0,0,.1.853,2.064,2.064,0,0,0,2.042,1.562A4.982,4.982,0,0,0,240.941,364.985Z" transform="translate(-77.173 -15.946)" fill="#fff"/>
    <path id="Path_41215" data-name="Path 41215" d="M320.146,376.6h-3.237c-.008-.113-.021-.217-.021-.32,0-3.075-.017-6.15,0-9.224a4.883,4.883,0,0,1,2-4.144,5.984,5.984,0,0,1,2.831-1.058,9.145,9.145,0,0,1,3.6.205,4.179,4.179,0,0,1,.831.333,1.586,1.586,0,0,1,.687,2.318c-.057.1-.133.2-.187.306-.138.275-.313.326-.609.2a5.943,5.943,0,0,0-3.375-.433,2.772,2.772,0,0,0-2.462,2.638c-.04.429-.061.861-.062,1.292q-.009,3.711,0,7.422Z" transform="translate(-135.963 -24.342)" fill="#fff"/>
    <path id="Path_41216" data-name="Path 41216" d="M412.772,377.606h-3.224v-.394q0-6.23,0-12.46a1.352,1.352,0,0,1,1.547-1.542,8.645,8.645,0,0,1,1.48.221.378.378,0,0,1,.222.284q.014,6.9,0,13.792A.488.488,0,0,1,412.772,377.606Z" transform="translate(-200.511 -25.348)" fill="#fff"/>
    <path id="Path_41217" data-name="Path 41217" d="M408.392,343.812a1.934,1.934,0,0,1,1.95-2,1.982,1.982,0,1,1,.03,3.964A1.928,1.928,0,0,1,408.392,343.812Z" transform="translate(-199.705 -10.445)" fill="#fff"/>
    <path id="Path_41218" data-name="Path 41218" d="M235.241,426.7c.341-1.056.7-2.107,1.016-3.169.079-.261.211-.288.437-.293s.362.048.438.294c.331,1.073.683,2.14,1.1,3.221.319-1.16.639-2.32.961-3.491h.644l-.37,1.31q-.41,1.451-.82,2.9c-.058.206-.091.386-.406.382s-.395-.135-.475-.4c-.316-1.029-.657-2.05-.989-3.074-.018-.055-.045-.107-.1-.231-.316.987-.612,1.909-.907,2.831a3.1,3.1,0,0,0-.145.48c-.054.372-.3.416-.6.367a.285.285,0,0,1-.195-.153c-.433-1.465-.857-2.932-1.284-4.4.627-.073.629-.074.787.479q.418,1.463.832,2.927Z" transform="translate(-77.917 -67.164)" fill="#fff"/>
    <path id="Path_41219" data-name="Path 41219" d="M451.033,427.814a.76.76,0,0,1-.947-.394c-.678-1.086-1.407-2.142-2.188-3.2v3.6h-.624v-4.572a4.864,4.864,0,0,1,.7.01.492.492,0,0,1,.288.212c.649.979,1.287,1.965,1.93,2.948.045.069.1.133.2.274V423.28h.648Z" transform="translate(-226.789 -67.167)" fill="#fff"/>
    <path id="Path_41220" data-name="Path 41220" d="M310,427.812a.731.731,0,0,1-1.02-.482c-.129-.319-.356-.6-.493-.916a.641.641,0,0,0-.913-.409v1.817h-.649v-4.551c.672,0,1.342-.041,2,.012a1.248,1.248,0,0,1,1.1,1.158,1.287,1.287,0,0,1-.859,1.416c-.066.025-.131.052-.221.088Zm-2.432-2.376c.446-.03.854-.027,1.25-.093a.689.689,0,0,0,.56-.768.726.726,0,0,0-.594-.716c-.4-.039-.807-.009-1.216-.009Z" transform="translate(-129.025 -67.174)" fill="#fff"/>
    <path id="Path_41221" data-name="Path 41221" d="M425.979,425.357a2.31,2.31,0,1,1,4.617.008,2.31,2.31,0,1,1-4.617-.008Zm.65-.047a1.666,1.666,0,0,0,1.917,1.83,1.553,1.553,0,0,0,1.29-1.111,1.943,1.943,0,0,0-.324-1.932,1.626,1.626,0,0,0-1.838-.443A1.7,1.7,0,0,0,426.629,425.31Z" transform="translate(-211.955 -66.978)" fill="#fff"/>
    <path id="Path_41222" data-name="Path 41222" d="M350.792,422.993a2.247,2.247,0,0,1,2.338,2.255,2.311,2.311,0,1,1-4.613.178A2.265,2.265,0,0,1,350.792,422.993Zm1.694,2.481a1.855,1.855,0,0,0-.569-1.512,1.658,1.658,0,0,0-2.376.207,2,2,0,0,0,.283,2.666,1.588,1.588,0,0,0,1.728.169A1.657,1.657,0,0,0,352.486,425.474Z" transform="translate(-157.998 -66.99)" fill="#fff"/>
    <path id="Path_41223" data-name="Path 41223" d="M257.041,427.869c.26-.662.5-1.273.738-1.882.326-.823.675-1.637.973-2.469.106-.3.294-.252.5-.26s.364,0,.463.263c.523,1.362,1.075,2.713,1.616,4.069.03.075.046.155.069.236-.634.073-.634.073-.848-.472-.313-.8-.313-.8-1.175-.795-.382,0-.849-.111-1.123.066-.253.164-.312.642-.436.989C257.674,428.034,257.346,427.787,257.041,427.869Zm2.182-3.95-.776,2.041h1.566Z" transform="translate(-94.28 -67.174)" fill="#fff"/>
    <path id="Path_41224" data-name="Path 41224" d="M468.913,424.032l-.514.19c-.4-.692-.749-.88-1.311-.719a.761.761,0,0,0-.592.722c0,.339.2.554.6.655.29.073.587.123.872.21a1.227,1.227,0,0,1,.977,1.289,1.334,1.334,0,0,1-1.108,1.243,1.746,1.746,0,0,1-2-.76c-.271-.511-.221-.6.405-.694.132.45.366.842.885.9a1.771,1.771,0,0,0,.737-.072.61.61,0,0,0,.431-.672.688.688,0,0,0-.55-.635c-.25-.08-.514-.112-.77-.172a1.285,1.285,0,0,1-1.132-1.214,1.411,1.411,0,0,1,1.025-1.331A1.546,1.546,0,0,1,468.913,424.032Z" transform="translate(-239.609 -66.915)" fill="#fff"/>
    <path id="Path_41225" data-name="Path 41225" d="M332.758,426.378l.553-.186a1.1,1.1,0,0,0,1.072.977,1.348,1.348,0,0,0,.493-.075.66.66,0,0,0,.5-.634.628.628,0,0,0-.464-.653,7.481,7.481,0,0,0-.833-.212,1.277,1.277,0,0,1-1.153-1.369,1.447,1.447,0,0,1,1.408-1.243,1.5,1.5,0,0,1,1.38.535,3.943,3.943,0,0,1,.3.573l-.556.2c-.326-.674-.833-.925-1.386-.707a.739.739,0,0,0-.492.758.649.649,0,0,0,.573.6c.3.072.61.127.907.217a1.25,1.25,0,0,1,.971,1.156,1.31,1.31,0,0,1-.893,1.3A1.678,1.678,0,0,1,332.758,426.378Z" transform="translate(-147.021 -66.981)" fill="#fff"/>
    <path id="Path_41226" data-name="Path 41226" d="M291.319,423.331h2.768v.551h-2.123V425.3h1.9v.6h-1.9v1.4h2.11v.581h-2.761Z" transform="translate(-118.157 -67.226)" fill="#fff"/>
    <path id="Path_41227" data-name="Path 41227" d="M386.975,423.317h.57c.006.129.015.245.015.361,0,.912.006,1.825,0,2.737a1.532,1.532,0,0,1-1.536,1.574,1.5,1.5,0,0,1-1.714-1.368c-.064-1.085-.016-2.178-.016-3.293h.6v1.357c0,.564-.011,1.129,0,1.692a1.02,1.02,0,0,0,1.978.35,2.477,2.477,0,0,0,.052-.607c.008-.9.007-1.8.011-2.7A.448.448,0,0,1,386.975,423.317Z" transform="translate(-182.907 -67.216)" fill="#fff"/>
    <path id="Path_41228" data-name="Path 41228" d="M400.342,423.911v-.557h3.648v.543h-1.474v4h-.664v-3.982Z" transform="translate(-194.098 -67.242)" fill="#fff"/>
    <path id="Path_41229" data-name="Path 41229" d="M370.506,427.278h2.144v.6h-2.722v-4.558h.578Z" transform="translate(-172.913 -67.215)" fill="#fff"/>
    <path id="Path_41230" data-name="Path 41230" d="M275.344,423.9h-1.529v-.559h3.652v.556h-1.514v3.992h-.609Z" transform="translate(-105.964 -67.232)" fill="#fff"/>
    <path id="Path_41231" data-name="Path 41231" d="M417.818,423.321h.607v4.559h-.607Z" transform="translate(-206.271 -67.219)" fill="#fff"/>
  </g>
</svg>
